<svg data-v-fde0c5aa="" xmlns="http://www.w3.org/2000/svg" viewBox="0 0 300 300" class="icon"><!----><defs data-v-fde0c5aa=""><!----></defs><rect data-v-fde0c5aa="" fill="#65A8E8" x="0" y="0" width="300px" height="300px" class="logo-background-square"></rect><!----><defs data-v-fde0c5aa=""><!----></defs><g data-v-fde0c5aa="" id="34916a20-1231-49ee-b68a-942d50876f66" fill="#225998" stroke="none" transform="matrix(2.5236720279387344,0,0,2.5236720279387344,23.812039958537177,23.812802901836346)"><path d="M31.955 45.315s-10.749-2.081-22.277-2.081c-11.527 0 10.258 17.508 22.277 18.434V45.315zM60.806 33.108a2.08 2.08 0 0 1-2.771.985l-10.49-4.986a2.078 2.078 0 0 1-.985-2.771l8.186-17.222a2.08 2.08 0 0 1 2.771-.986l10.49 4.986a2.08 2.08 0 0 1 .985 2.772l-8.186 17.222zM66.972 23.371l26.617 12.652-1.637 3.444-26.617-12.651zM93.587 52.958v-9.129H33.954v18.723c5.316 0 14.793 4.16 14.793 10.401 0 4.125-4.797 7.481-8.813 10.21l-8.408 1.892v7.021H88.04v-7.021l-9.881-2.105c-6.417-5.196-6.587-10.922-6.587-10.922 0-18.549 22.015-19.07 22.015-19.07zm-24.27 32.165l-9.881.068-9.882-.068v-.138s1.236-.396 3.088-.677a23.78 23.78 0 0 1 1.497-.204c.53-.058 1.089-.129 1.668-.158s1.177-.098 1.785-.098c.608-.017 1.226-.029 1.844-.043.618.014 1.234.026 1.843.043.608.005 1.206.071 1.785.101.579.028 1.14.101 1.669.158.531.051 1.034.13 1.496.204 1.853.28 3.088.674 3.088.674v.138z"></path></g><!----></svg>