<svg data-v-fde0c5aa="" xmlns="http://www.w3.org/2000/svg" viewBox="0 0 300 300" class="iconLeft"><!----><defs data-v-fde0c5aa=""><!----></defs><rect data-v-fde0c5aa="" fill="#65A8E8" x="0" y="0" width="300px" height="300px" class="logo-background-square"></rect><defs data-v-fde0c5aa=""><!----></defs><g data-v-fde0c5aa="" id="99e83d45-5d62-4960-9444-42180ddbdfc0" fill="#ffffff" transform="matrix(4.6924974930492525,0,0,4.6924974930492525,122.60366612586319,113.18735703277518)"><path d="M2.86 12.74L2.86 12.74Q2.15 12.74 1.59 12.48L1.59 12.48L1.59 12.48Q1.03 12.22 0.70 11.71L0.70 11.71L0.70 11.71Q0.38 11.20 0.38 10.51L0.38 10.51L0.38 10.51Q0.38 9.46 1.11 9.00L1.11 9.00L1.11 9.00Q1.85 8.53 3.10 8.53L3.10 8.53L4.87 8.53L4.87 8.53Q4.87 7.87 4.53 7.48L4.53 7.48L4.53 7.48Q4.18 7.09 3.53 7.09L3.53 7.09L3.53 7.09Q2.98 7.09 2.57 7.36L2.57 7.36L2.57 7.36Q2.17 7.63 1.92 8.05L1.92 8.05L0.64 7.13L0.64 7.13Q1.17 6.41 1.86 6.02L1.86 6.02L1.86 6.02Q2.56 5.63 3.51 5.63L3.51 5.63L3.51 5.63Q4.43 5.63 5.10 5.99L5.10 5.99L5.10 5.99Q5.76 6.34 6.11 6.99L6.11 6.99L6.11 6.99Q6.47 7.63 6.47 8.46L6.47 8.46L6.47 12.61L5.09 12.61L4.98 11.63L4.98 11.63Q4.57 12.24 4.04 12.49L4.04 12.49L4.04 12.49Q3.51 12.74 2.86 12.74L2.86 12.74ZM3.10 11.33L3.10 11.33Q3.56 11.33 3.96 11.11L3.96 11.11L3.96 11.11Q4.37 10.89 4.61 10.52L4.61 10.52L4.61 10.52Q4.86 10.16 4.87 9.73L4.87 9.73L3.19 9.73L3.19 9.73Q2.65 9.73 2.37 9.97L2.37 9.97L2.37 9.97Q2.08 10.21 2.08 10.56L2.08 10.56L2.08 10.56Q2.08 10.91 2.35 11.12L2.35 11.12L2.35 11.12Q2.62 11.33 3.10 11.33L3.10 11.33ZM8.24 12.61L8.24 5.78L9.90 5.78L9.90 6.57L9.90 6.57Q10.29 6.10 10.83 5.87L10.83 5.87L10.83 5.87Q11.37 5.63 11.92 5.63L11.92 5.63L11.92 5.63Q12.76 5.63 13.32 6.04L13.32 6.04L13.32 6.04Q13.88 6.44 14.13 7.09L14.13 7.09L14.13 7.09Q14.39 7.75 14.39 8.50L14.39 8.50L14.39 12.61L12.74 12.61L12.74 8.72L12.74 8.72Q12.74 8.03 12.40 7.60L12.40 7.60L12.40 7.60Q12.06 7.17 11.44 7.17L11.44 7.17L11.44 7.17Q10.71 7.17 10.30 7.59L10.30 7.59L10.30 7.59Q9.90 8.00 9.90 8.87L9.90 8.87L9.90 12.61L8.24 12.61ZM17.92 12.61L15.13 5.78L16.95 5.78L18.61 10.45L20.27 5.78L22.08 5.78L19.29 12.61L17.92 12.61ZM22.97 4.48L22.97 2.95L24.71 2.95L24.71 4.48L22.97 4.48ZM23.01 12.61L23.01 5.78L24.66 5.78L24.66 12.61L23.01 12.61ZM28.03 12.74L28.03 12.74Q27.37 12.74 26.99 12.41L26.99 12.41L26.99 12.41Q26.61 12.08 26.61 11.25L26.61 11.25L26.61 2.95L28.27 2.95L28.27 10.79L28.27 10.79Q28.27 11.25 28.82 11.25L28.82 11.25L28.82 11.25Q29.01 11.25 29.28 11.20L29.28 11.20L29.28 12.61L29.28 12.61Q28.58 12.74 28.03 12.74L28.03 12.74Z"></path></g><defs data-v-fde0c5aa=""><!----></defs><g data-v-fde0c5aa="" id="bb39bce7-f2d7-4423-9ca2-f7fb15e23660" stroke="none" fill="#225998" transform="matrix(0.8188950405125122,0,0,0.8188950405125122,34.74724130266802,109.05408122137744)"><path d="M31.955 45.315s-10.749-2.081-22.277-2.081c-11.527 0 10.258 17.508 22.277 18.434V45.315zM60.806 33.108a2.08 2.08 0 0 1-2.771.985l-10.49-4.986a2.078 2.078 0 0 1-.985-2.771l8.186-17.222a2.08 2.08 0 0 1 2.771-.986l10.49 4.986a2.08 2.08 0 0 1 .985 2.772l-8.186 17.222zM66.972 23.371l26.617 12.652-1.637 3.444-26.617-12.651zM93.587 52.958v-9.129H33.954v18.723c5.316 0 14.793 4.16 14.793 10.401 0 4.125-4.797 7.481-8.813 10.21l-8.408 1.892v7.021H88.04v-7.021l-9.881-2.105c-6.417-5.196-6.587-10.922-6.587-10.922 0-18.549 22.015-19.07 22.015-19.07zm-24.27 32.165l-9.881.068-9.882-.068v-.138s1.236-.396 3.088-.677a23.78 23.78 0 0 1 1.497-.204c.53-.058 1.089-.129 1.668-.158s1.177-.098 1.785-.098c.608-.017 1.226-.029 1.844-.043.618.014 1.234.026 1.843.043.608.005 1.206.071 1.785.101.579.028 1.14.101 1.669.158.531.051 1.034.13 1.496.204 1.853.28 3.088.674 3.088.674v.138z"></path></g><!----></svg>